<svg fill="none" height="239.564823" viewBox="0 0 115 66" width="417.423555" xmlns="http://www.w3.org/2000/svg"><g fill="#009982"><path d="m45.093 60.296v-1.506h4.248v4.828c-.538.47-1.15.847-1.813 1.117-.763.333-1.75.5-2.96.5-1.263 0-2.353-.276-3.27-.827-.91-.54-1.65-1.324-2.136-2.263-.51-.998-.766-2.105-.748-3.226-.006-.846.142-1.686.437-2.48.278-.75.7-1.44 1.242-2.032.537-.588 1.193-1.057 1.924-1.376.783-.335 1.627-.502 2.478-.49.754-.02 1.503.11 2.207.38.56.223 1.08.54 1.534.934.362.315.685.672.962 1.064l-1.234 1.05c-.22-.31-.47-.598-.745-.86-.325-.305-.7-.554-1.107-.736-.5-.212-1.038-.314-1.58-.3-.813-.02-1.614.21-2.296.655-.646.432-1.16 1.035-1.488 1.742-.35.754-.527 1.578-.517 2.41-.018.857.178 1.705.57 2.468.357.698.897 1.286 1.562 1.7.68.412 1.464.622 2.26.608.608.013 1.214-.07 1.797-.245.45-.14.874-.36 1.25-.645v-2.472h-2.577zm6.899 4.648v-12.113h3.863c1.033 0 1.856.172 2.47.516.57.304 1.035.773 1.334 1.345.266.523.406 1.1.407 1.688.015.722-.174 1.433-.544 2.052-.397.62-.992 1.088-1.688 1.326l2.84 5.185h-1.966l-2.596-4.958h-2.432v4.96h-1.688zm1.688-6.427h2.325c.75 0 1.32-.188 1.706-.563.197-.197.35-.432.45-.692s.145-.536.133-.814c0-.665-.206-1.182-.618-1.55-.412-.366-.98-.55-1.708-.553h-2.288zm14.252 6.733c-.836.007-1.665-.16-2.433-.49-.742-.32-1.41-.79-1.962-1.378-1.153-1.217-1.79-2.834-1.78-4.51-.006-.85.152-1.69.464-2.48.3-.752.744-1.44 1.308-2.023.56-.58 1.23-1.042 1.97-1.362.77-.324 1.596-.49 2.43-.49.837 0 1.664.166 2.434.49.74.32 1.41.782 1.97 1.36.565.585 1.01 1.272 1.316 2.025.478 1.168.61 2.45.376 3.69s-.82 2.386-1.69 3.3c-.568.595-1.252 1.067-2.01 1.387-.756.32-1.57.482-2.394.475m0-1.635c.817.02 1.62-.21 2.305-.654.652-.434 1.178-1.032 1.525-1.734.367-.735.554-1.546.546-2.368.01-.827-.174-1.645-.536-2.39-.34-.698-.865-1.293-1.516-1.72-.7-.42-1.5-.644-2.315-.644s-1.615.223-2.314.644c-.65.427-1.175 1.022-1.516 1.72-.353.745-.535 1.557-.535 2.38s.182 1.635.535 2.378c.34.703.865 1.3 1.516 1.734.685.445 1.49.673 2.306.654zm8.369-3.279v-7.5h1.744v7.08c-.01.65.08 1.3.272 1.923.16.527.493.985.945 1.3.448.307 1.07.462 1.87.463.8 0 1.42-.154 1.86-.463.448-.317.778-.775.937-1.3.19-.623.282-1.272.272-1.924v-7.078h1.74v7.497c.013.86-.163 1.71-.516 2.495-.337.735-.888 1.352-1.58 1.77-.707.436-1.61.654-2.714.655-1.103 0-2.012-.216-2.728-.65-.697-.416-1.25-1.034-1.59-1.772-.35-.784-.528-1.636-.515-2.495m12.313 4.612v-12.11h3.83c.696-.02 1.39.096 2.042.343.49.19.928.49 1.28.88.305.345.534.75.672 1.19.13.407.197.832.2 1.26.023.712-.16 1.415-.527 2.025-.35.55-.855.984-1.453 1.245-.67.29-1.394.43-2.123.416h-2.196v4.753h-1.725zm1.72-6.244h2.185c.75 0 1.328-.195 1.733-.583.405-.387.608-.914.608-1.58.014-.297-.034-.595-.142-.873-.108-.28-.273-.53-.485-.74-.417-.4-.99-.6-1.722-.602h-2.18l.003 4.377zm-90.33-13.397v-21.542h13.953v3.584h-9.883v5.07h7.267v3.618h-7.267v5.62h10.627v3.65zm17.99-21.542h4.07v4.007h-4.07zm.13 6.394h3.81v15.146h-3.81zm7.717 15.148v-15.146h3.65l.097 1.906c.285-.35.604-.668.954-.952.448-.364.95-.658 1.485-.873.674-.263 1.393-.39 2.115-.372.33-.002.66.02.985.066.302.047.6.122.888.226l-.774 3.585c-.558-.2-1.15-.3-1.743-.293-.998-.02-1.968.337-2.713 1.002-.756.666-1.133 1.56-1.13 2.678v8.171l-3.813.002zm24.061-7.945v-3.457h7.72v8.915c-.84.797-1.943 1.497-3.31 2.1-1.367.602-3.138.903-5.313.903-2.348 0-4.36-.495-6.04-1.485-1.642-.95-2.985-2.344-3.875-4.02-.917-1.745-1.383-3.69-1.357-5.66-.01-1.513.263-3.014.808-4.424.518-1.35 1.29-2.583 2.278-3.636.988-1.05 2.18-1.885 3.504-2.455 1.417-.608 2.945-.913 4.487-.898 2.132 0 3.903.42 5.312 1.26 1.337.775 2.498 1.82 3.408 3.07l-2.87 2.55c-.642-.943-1.46-1.754-2.41-2.39-.917-.6-2.064-.903-3.44-.904-1.4 0-2.61.355-3.634 1.065-1.025.714-1.84 1.69-2.358 2.826-.555 1.198-.836 2.506-.823 3.827 0 1.53.328 2.864.984 4.005.614 1.098 1.512 2.01 2.6 2.64 1.09.63 2.327.957 3.585.945 1.98 0 3.51-.474 4.585-1.422v-3.358h-3.842zm11.637 7.945v-15.146h3.65l.097 1.906c.283-.35.602-.67.952-.952.448-.364.95-.658 1.485-.873.672-.263 1.392-.39 2.114-.372.33-.002.66.02.986.066.303.047.6.123.89.226l-.778 3.585c-.558-.2-1.15-.3-1.743-.29-1-.02-1.968.338-2.714 1.002-.754.668-1.13 1.56-1.13 2.68v8.172l-3.81-.002zm12.361-21.542h4.07v4.007h-4.07zm.13 6.394h3.81v15.146h-3.81zm18.279 15.148-.098-1.485c-.5.52-1.07.965-1.695 1.323-.742.452-1.683.678-2.826.678-1.118-.005-2.213-.318-3.166-.903-1.057-.65-1.92-1.57-2.504-2.665-.657-1.173-.985-2.59-.984-4.247-.02-1.067.155-2.13.516-3.133.297-.822.734-1.587 1.29-2.26.543-.657 1.2-1.21 1.94-1.63.66-.38 1.365-.673 2.1-.874.577-.166 1.174-.26 1.775-.275.523-.007 1.046.02 1.566.082.34.046.674.122 1 .227.292.095.62.22.985.37v-6.75h3.787v21.542h-3.687zm-.098-6.712v-4.647c-.668-.54-1.712-.81-3.132-.81-.647-.02-1.288.13-1.858.438-.507.293-.95.683-1.308 1.147-.69.904-1.033 2.002-1.033 3.294 0 1.293.322 2.37.967 3.232.647.86 1.584 1.29 2.81 1.29.884 0 1.584-.203 2.1-.612.508-.397.894-.93 1.114-1.535.22-.572.337-1.18.344-1.792"/><path d="m113.857 19.162c-2.582-7.962-10.005-13.232-17.542-16.062-12.505-4.62-27.915-4.115-39.91 1.78-4.075 2.002-7.806 4.64-11.054 7.81-.155.132-.26.313-.297.514-.037.2-.002.41.098.586.102.178.26.316.452.388.19.073.4.076.594.01.186-.05.4-.1.606-.148.618-.14 1.257-.29 1.883-.406 4.664-.94 9.564-1.463 14.42-1.334-1.976 1.438-3.795 3.08-5.43 4.895-.026.028-.046.06-.06.096-.013.037-.02.076-.017.114.002.038.01.076.027.11.016.035.04.066.067.092.028.026.06.046.097.06.035.012.073.018.11.016.04 0 .077-.01.11-.026.036-.016.067-.04.093-.067 2.197-1.948 4.57-3.687 7.09-5.194 4.108.272 8.157 1.033 11.977 2.446-2.094 1.685-4.01 3.58-5.718 5.655-.047.06-.07.138-.06.215.007.076.044.147.103.197.06.05.135.074.212.07.076-.005.15-.04.2-.095 1.868-1.866 3.89-3.57 6.044-5.095.195-.14.392-.277.588-.413 2.597 1.07 5.047 2.467 7.29 4.156.064.044.14.06.217.05.076-.012.145-.052.193-.112s.07-.135.065-.21c-.005-.078-.04-.15-.096-.202-2.05-1.714-4.305-3.17-6.712-4.332 2.167-1.435 4.447-2.693 6.816-3.764 3.244 1.298 6.33 2.957 9.203 4.945.713.463 1.647 1.205 2.355 1.707.06.052.136.077.214.072.078-.006.15-.043.2-.102.053-.06.078-.136.072-.214-.005-.078-.042-.15-.1-.2-2.98-2.834-6.374-5.196-10.066-7.005 3.182-1.276 6.508-2.16 9.903-2.63 3.77 1.8 7.182 4.22 9.924 7.38 8.85 10.43 3.098 22.528-6.99 29.468-.103.077-.173.19-.195.317-.023.126.004.256.074.364.07.107.18.184.305.214.124.03.255.01.367-.053 1.923-1.17 3.73-2.52 5.395-4.033 6.174-5.545 9.64-13.85 6.885-22.03zm-31.522-15.742c-2.7.63-5.35 1.473-7.917 2.52-2.942-.434-5.915-.63-8.888-.583-1.315.026-2.63.087-3.94.196 4.734-1.533 9.674-2.333 14.65-2.373 2.037-.028 4.073.052 6.102.24m-32.732 8.142c1.9-1.358 3.91-2.558 6.008-3.59 5.124-.83 10.333-1.018 15.504-.56-2.077 1.016-4.082 2.17-6.004 3.456-5.176-.497-10.397-.262-15.51.697m29.18 1.99c-.23.175-.46.352-.69.53-3.415-1.466-7.015-2.462-10.7-2.96 1.916-1.037 3.884-1.974 5.896-2.808.423-.173.85-.346 1.277-.507.813.114 1.622.25 2.426.406 2.406.46 4.776 1.096 7.09 1.9-1.842 1.02-3.613 2.167-5.3 3.43m7.178-4.41c-.715-.304-1.437-.59-2.165-.86-1.89-.68-3.82-1.24-5.782-1.675 1.235-.393 2.48-.747 3.733-1.064 2.11-.524 4.243-.95 6.397-1.28 2.192.44 4.35 1.044 6.454 1.802-2.988.684-5.887 1.716-8.635 3.076"/></g></svg>